<?xml version="1.0" standalone="no"?>
<!DOCTYPE svg PUBLIC "-//W3C//DTD SVG 20010904//EN"
 "http://www.w3.org/TR/2001/REC-SVG-20010904/DTD/svg10.dtd">
<svg version="1.0" xmlns="http://www.w3.org/2000/svg"
 width="128.000000pt" height="128.000000pt" viewBox="0 0 128.000000 128.000000"
 preserveAspectRatio="xMidYMid meet">
<metadata>
Created by potrace 1.11, written by Peter Selinger 2001-2013
</metadata>
<g transform="translate(0.000000,128.000000) scale(0.100000,-0.100000)"
fill="#000000" stroke="none">
<path d="M620 1023 c0 -4 7 -17 15 -27 22 -29 19 -33 -28 -40 -61 -9 -138 -48
-180 -90 -58 -58 -81 -111 -81 -186 -1 -55 5 -75 33 -128 41 -75 119 -150 199
-189 85 -42 192 -45 267 -9 123 61 187 202 152 334 -13 47 -13 52 3 52 9 0 25
6 35 14 18 13 18 14 -5 26 -13 7 -48 32 -77 56 -30 24 -60 44 -68 44 -20 0
-19 6 5 46 25 40 7 60 -22 24 -21 -26 -25 -80 -5 -80 7 0 22 -7 33 -15 18 -14
18 -15 -6 -12 -21 2 -26 -3 -31 -33 -6 -38 -16 -26 -21 25 l-3 30 -90 -1 c-90
-2 -91 3 -7 25 23 7 42 16 42 22 0 5 -21 19 -46 30 -26 11 -44 22 -41 25 3 3
35 -10 71 -29 36 -19 66 -31 66 -27 0 16 -39 41 -94 60 -31 10 -70 29 -86 40
-17 12 -30 18 -30 13z m76 -112 c-3 -4 -26 -14 -51 -21 -78 -22 -48 -40 68
-40 96 0 107 -8 107 -78 0 -65 8 -102 22 -102 12 0 38 63 38 94 0 40 16 38 45
-5 75 -107 18 -282 -110 -340 -91 -42 -220 -14 -298 65 -66 65 -103 168 -91
247 9 54 60 128 105 151 53 27 177 49 165 29z"/>
<path d="M1273 785 c0 -33 2 -45 4 -27 2 18 2 45 0 60 -2 15 -4 0 -4 -33z"/>
<path d="M1273 505 c0 -33 2 -45 4 -27 2 18 2 45 0 60 -2 15 -4 0 -4 -33z"/>
</g>
</svg>
